<?xml version="1.0" encoding="utf-8"?><svg width="auto" height="5770" style="overflow:visible " version="1.1" xmlns="http://www.w3.org/2000/svg"><rect x="20" y="20" width="200" height="40" style="fill:white;stroke:black;stroke-width:1" /><text x="30" y="30" font-size="10" style="fill:blue">rutas</text><rect x="240" y="20" width="200" height="40" style="fill:white;stroke:black;stroke-width:1" /><text x="250" y="30" font-size="10" style="fill:blue">ruta</text><path d="M220 40 C240 40 220 40 240 40" style="fill:transparent;stroke:black" /><rect x="460" y="20" width="200" height="40" style="fill:white;stroke:black;stroke-width:1" /><text x="470" y="30" font-size="10" style="fill:blue">nombre</text><path d="M440 40 C460 40 440 40 460 40" style="fill:transparent;stroke:black" /><rect x="526" y="20" width="137" height="40" style="fill:green;stroke:black;stroke-width:1" /><text x="536" y="30" font-size="8" style="fill:white">Isla Java</text><rect x="460" y="70" width="200" height="40" style="fill:white;stroke:black;stroke-width:1" /><text x="470" y="80" font-size="10" style="fill:blue">tipoRuta</text><path d="M440 40 C460 40 440 90 460 90" style="fill:transparent;stroke:black" /><rect x="526" y="70" width="137" height="40" style="fill:green;stroke:black;stroke-width:1" /><text x="536" y="80" font-size="8" style="fill:white">Turística</text><rect x="460" y="120" width="200" height="40" style="fill:white;stroke:black;stroke-width:1" /><text x="470" y="130" font-size="10" style="fill:blue">transporte</text><path d="M440 40 C460 40 440 140 460 140" style="fill:transparent;stroke:black" /><rect x="526" y="120" width="137" height="40" style="fill:green;stroke:black;stroke-width:1" /><text x="536" y="130" font-size="8" style="fill:white">Coche</text><rect x="460" y="170" width="200" height="40" style="fill:white;stroke:black;stroke-width:1" /><text x="470" y="180" font-size="10" style="fill:blue">duracion</text><path d="M440 40 C460 40 440 190 460 190" style="fill:transparent;stroke:black" /><rect x="526" y="170" width="137" height="40" style="fill:green;stroke:black;stroke-width:1" /><text x="536" y="180" font-size="8" style="fill:white">P0Y0M0DT5H25M</text><rect x="460" y="220" width="200" height="40" style="fill:white;stroke:black;stroke-width:1" /><text x="470" y="230" font-size="10" style="fill:blue">agencia</text><path d="M440 40 C460 40 440 240 460 240" style="fill:transparent;stroke:black" /><rect x="526" y="220" width="137" height="40" style="fill:green;stroke:black;stroke-width:1" /><text x="536" y="230" font-size="8" style="fill:white">Sin agencia</text><rect x="460" y="270" width="200" height="40" style="fill:white;stroke:black;stroke-width:1" /><text x="470" y="280" font-size="10" style="fill:blue">descripcion</text><path d="M440 40 C460 40 440 290 460 290" style="fill:transparent;stroke:black" /><rect x="526" y="270" width="137" height="40" style="fill:green;stroke:black;stroke-width:1" /><text x="536" y="280" font-size="8" style="fill:white">Visita por la isla de Java</text><rect x="460" y="320" width="200" height="40" style="fill:white;stroke:black;stroke-width:1" /><text x="470" y="330" font-size="10" style="fill:blue">personasAdecuadas</text><path d="M440 40 C460 40 440 340 460 340" style="fill:transparent;stroke:black" /><rect x="526" y="320" width="137" height="40" style="fill:green;stroke:black;stroke-width:1" /><text x="536" y="330" font-size="8" style="fill:white">Se puede ir con niños</text><rect x="460" y="370" width="200" height="40" style="fill:white;stroke:black;stroke-width:1" /><text x="470" y="380" font-size="10" style="fill:blue">lugarInicio</text><path d="M440 40 C460 40 440 390 460 390" style="fill:transparent;stroke:black" /><rect x="526" y="370" width="137" height="40" style="fill:green;stroke:black;stroke-width:1" /><text x="536" y="380" font-size="8" style="fill:white">Aeropuerto Internacional Soekarno-Hatta</text><rect x="460" y="420" width="200" height="40" style="fill:white;stroke:black;stroke-width:1" /><text x="470" y="430" font-size="10" style="fill:blue">direccionInicio</text><path d="M440 40 C460 40 440 440 460 440" style="fill:transparent;stroke:black" /><rect x="526" y="420" width="137" height="40" style="fill:green;stroke:black;stroke-width:1" /><text x="536" y="430" font-size="8" style="fill:white">Pajang, Tangerang City, Banten, Indonesia</text><rect x="460" y="470" width="200" height="40" style="fill:white;stroke:black;stroke-width:1" /><text x="470" y="480" font-size="10" style="fill:blue">coordenadas</text><path d="M440 40 C460 40 440 490 460 490" style="fill:transparent;stroke:black" /><text x="470" y="490" font-size="8" style="fill:black">longitud: 106.829</text><text x="470" y="500" font-size="8" style="fill:black">latitud: -6.20199</text><text x="470" y="510" font-size="8" style="fill:black">altitud: 8.0</text><rect x="460" y="520" width="200" height="40" style="fill:white;stroke:black;stroke-width:1" /><text x="470" y="530" font-size="10" style="fill:blue">referencias</text><path d="M440 40 C460 40 440 540 460 540" style="fill:transparent;stroke:black" /><rect x="680" y="520" width="200" height="40" style="fill:white;stroke:black;stroke-width:1" /><text x="690" y="530" font-size="10" style="fill:blue">referencia</text><path d="M660 540 C680 540 660 540 680 540" style="fill:transparent;stroke:black" /><rect x="746" y="520" width="137" height="40" style="fill:green;stroke:black;stroke-width:1" /><text x="756" y="530" font-size="8" style="fill:white">https://es.wikipedia.org/wiki/Yakarta</text><rect x="680" y="570" width="200" height="40" style="fill:white;stroke:black;stroke-width:1" /><text x="690" y="580" font-size="10" style="fill:blue">referencia</text><path d="M660 540 C680 540 660 590 680 590" style="fill:transparent;stroke:black" /><rect x="746" y="570" width="137" height="40" style="fill:green;stroke:black;stroke-width:1" /><text x="756" y="580" font-size="8" style="fill:white">https://es.db-city.com/Indonesia--Jakarta--Yakarta</text><rect x="680" y="620" width="200" height="40" style="fill:white;stroke:black;stroke-width:1" /><text x="690" y="630" font-size="10" style="fill:blue">referencia</text><path d="M660 540 C680 540 660 640 680 640" style="fill:transparent;stroke:black" /><rect x="746" y="620" width="137" height="40" style="fill:green;stroke:black;stroke-width:1" /><text x="756" y="630" font-size="8" style="fill:white">https://www.mundo-nomada.com/indonesia/que-ver-y-hacer-en-yakarta</text><rect x="460" y="720" width="200" height="40" style="fill:white;stroke:black;stroke-width:1" /><text x="470" y="730" font-size="10" style="fill:blue">recomendacion</text><path d="M440 40 C460 40 440 740 460 740" style="fill:transparent;stroke:black" /><rect x="526" y="720" width="137" height="40" style="fill:green;stroke:black;stroke-width:1" /><text x="536" y="730" font-size="8" style="fill:white">8</text><rect x="460" y="770" width="200" height="40" style="fill:white;stroke:black;stroke-width:1" /><text x="470" y="780" font-size="10" style="fill:blue">hitos</text><path d="M440 40 C460 40 440 790 460 790" style="fill:transparent;stroke:black" /><rect x="680" y="770" width="200" height="40" style="fill:white;stroke:black;stroke-width:1" /><text x="690" y="780" font-size="10" style="fill:blue">hito</text><path d="M660 790 C680 790 660 790 680 790" style="fill:transparent;stroke:black" /><rect x="900" y="770" width="200" height="40" style="fill:white;stroke:black;stroke-width:1" /><text x="910" y="780" font-size="10" style="fill:blue">nombreHito</text><path d="M880 790 C900 790 880 790 900 790" style="fill:transparent;stroke:black" /><rect x="966" y="770" width="137" height="40" style="fill:green;stroke:black;stroke-width:1" /><text x="976" y="780" font-size="8" style="fill:white">Monumen Nasional</text><rect x="900" y="820" width="200" height="40" style="fill:white;stroke:black;stroke-width:1" /><text x="910" y="830" font-size="10" style="fill:blue">descripcionHito</text><path d="M880 790 C900 790 880 840 900 840" style="fill:transparent;stroke:black" /><rect x="966" y="820" width="137" height="40" style="fill:green;stroke:black;stroke-width:1" /><text x="976" y="830" font-size="8" style="fill:white">Monumento principal de Yakarta</text><rect x="900" y="870" width="200" height="40" style="fill:white;stroke:black;stroke-width:1" /><text x="910" y="880" font-size="10" style="fill:blue">coordenadasHito</text><path d="M880 790 C900 790 880 890 900 890" style="fill:transparent;stroke:black" /><text x="910" y="890" font-size="8" style="fill:black">longitud: 106.65369</text><text x="910" y="900" font-size="8" style="fill:black">latitud: -6.12751</text><text x="910" y="910" font-size="8" style="fill:black">altitud: 132.0</text><rect x="900" y="920" width="200" height="40" style="fill:white;stroke:black;stroke-width:1" /><text x="910" y="930" font-size="10" style="fill:blue">distanciaAnterior</text><path d="M880 790 C900 790 880 940 900 940" style="fill:transparent;stroke:black" /><text x="910" y="940" font-size="8" style="fill:black">unidades: minutos</text><rect x="966" y="920" width="137" height="40" style="fill:green;stroke:black;stroke-width:1" /><text x="976" y="930" font-size="8" style="fill:white">45</text><rect x="900" y="970" width="200" height="40" style="fill:white;stroke:black;stroke-width:1" /><text x="910" y="980" font-size="10" style="fill:blue">fotografias</text><path d="M880 790 C900 790 880 990 900 990" style="fill:transparent;stroke:black" /><rect x="1120" y="970" width="200" height="40" style="fill:white;stroke:black;stroke-width:1" /><text x="1130" y="980" font-size="10" style="fill:blue">fotografia</text><path d="M1100 990 C1120 990 1100 990 1120 990" style="fill:transparent;stroke:black" /><text x="1130" y="990" font-size="8" style="fill:black">src: multimedia/yakarta.jpg</text><rect x="1186" y="970" width="137" height="40" style="fill:green;stroke:black;stroke-width:1" /><text x="1196" y="980" font-size="8" style="fill:white">Yakarta</text><rect x="680" y="1120" width="200" height="40" style="fill:white;stroke:black;stroke-width:1" /><text x="690" y="1130" font-size="10" style="fill:blue">hito</text><path d="M660 790 C680 790 660 1140 680 1140" style="fill:transparent;stroke:black" /><rect x="900" y="1120" width="200" height="40" style="fill:white;stroke:black;stroke-width:1" /><text x="910" y="1130" font-size="10" style="fill:blue">nombreHito</text><path d="M880 1140 C900 1140 880 1140 900 1140" style="fill:transparent;stroke:black" /><rect x="966" y="1120" width="137" height="40" style="fill:green;stroke:black;stroke-width:1" /><text x="976" y="1130" font-size="8" style="fill:white">Bandung</text><rect x="900" y="1170" width="200" height="40" style="fill:white;stroke:black;stroke-width:1" /><text x="910" y="1180" font-size="10" style="fill:blue">descripcionHito</text><path d="M880 1140 C900 1140 880 1190 900 1190" style="fill:transparent;stroke:black" /><rect x="966" y="1170" width="137" height="40" style="fill:green;stroke:black;stroke-width:1" /><text x="976" y="1180" font-size="8" style="fill:white">Ciudad central de la isla de Java</text><rect x="900" y="1220" width="200" height="40" style="fill:white;stroke:black;stroke-width:1" /><text x="910" y="1230" font-size="10" style="fill:blue">coordenadasHito</text><path d="M880 1140 C900 1140 880 1240 900 1240" style="fill:transparent;stroke:black" /><text x="910" y="1240" font-size="8" style="fill:black">longitud: 107.6186100</text><text x="910" y="1250" font-size="8" style="fill:black">latitud: -6.9038900</text><text x="910" y="1260" font-size="8" style="fill:black">altitud: 802.0</text><rect x="900" y="1270" width="200" height="40" style="fill:white;stroke:black;stroke-width:1" /><text x="910" y="1280" font-size="10" style="fill:blue">distanciaAnterior</text><path d="M880 1140 C900 1140 880 1290 900 1290" style="fill:transparent;stroke:black" /><text x="910" y="1290" font-size="8" style="fill:black">unidades: minutos</text><rect x="966" y="1270" width="137" height="40" style="fill:green;stroke:black;stroke-width:1" /><text x="976" y="1280" font-size="8" style="fill:white">140</text><rect x="900" y="1320" width="200" height="40" style="fill:white;stroke:black;stroke-width:1" /><text x="910" y="1330" font-size="10" style="fill:blue">fotografias</text><path d="M880 1140 C900 1140 880 1340 900 1340" style="fill:transparent;stroke:black" /><rect x="1120" y="1320" width="200" height="40" style="fill:white;stroke:black;stroke-width:1" /><text x="1130" y="1330" font-size="10" style="fill:blue">fotografia</text><path d="M1100 1340 C1120 1340 1100 1340 1120 1340" style="fill:transparent;stroke:black" /><text x="1130" y="1340" font-size="8" style="fill:black">src: multimedia/bandung.jpg</text><rect x="1186" y="1320" width="137" height="40" style="fill:green;stroke:black;stroke-width:1" /><text x="1196" y="1330" font-size="8" style="fill:white">Bandung</text><rect x="680" y="1470" width="200" height="40" style="fill:white;stroke:black;stroke-width:1" /><text x="690" y="1480" font-size="10" style="fill:blue">hito</text><path d="M660 790 C680 790 660 1490 680 1490" style="fill:transparent;stroke:black" /><rect x="900" y="1470" width="200" height="40" style="fill:white;stroke:black;stroke-width:1" /><text x="910" y="1480" font-size="10" style="fill:blue">nombreHito</text><path d="M880 1490 C900 1490 880 1490 900 1490" style="fill:transparent;stroke:black" /><rect x="966" y="1470" width="137" height="40" style="fill:green;stroke:black;stroke-width:1" /><text x="976" y="1480" font-size="8" style="fill:white">Cirebon</text><rect x="900" y="1520" width="200" height="40" style="fill:white;stroke:black;stroke-width:1" /><text x="910" y="1530" font-size="10" style="fill:blue">descripcionHito</text><path d="M880 1490 C900 1490 880 1540 900 1540" style="fill:transparent;stroke:black" /><rect x="966" y="1520" width="137" height="40" style="fill:green;stroke:black;stroke-width:1" /><text x="976" y="1530" font-size="8" style="fill:white">Ciudad nordica costera </text><rect x="900" y="1570" width="200" height="40" style="fill:white;stroke:black;stroke-width:1" /><text x="910" y="1580" font-size="10" style="fill:blue">coordenadasHito</text><path d="M880 1490 C900 1490 880 1590 900 1590" style="fill:transparent;stroke:black" /><text x="910" y="1590" font-size="8" style="fill:black">longitud: 108.567</text><text x="910" y="1600" font-size="8" style="fill:black">latitud: -6.71667</text><text x="910" y="1610" font-size="8" style="fill:black">altitud: 9.0</text><rect x="900" y="1620" width="200" height="40" style="fill:white;stroke:black;stroke-width:1" /><text x="910" y="1630" font-size="10" style="fill:blue">distanciaAnterior</text><path d="M880 1490 C900 1490 880 1640 900 1640" style="fill:transparent;stroke:black" /><text x="910" y="1640" font-size="8" style="fill:black">unidades: minutos</text><rect x="966" y="1620" width="137" height="40" style="fill:green;stroke:black;stroke-width:1" /><text x="976" y="1630" font-size="8" style="fill:white">130</text><rect x="900" y="1670" width="200" height="40" style="fill:white;stroke:black;stroke-width:1" /><text x="910" y="1680" font-size="10" style="fill:blue">fotografias</text><path d="M880 1490 C900 1490 880 1690 900 1690" style="fill:transparent;stroke:black" /><rect x="1120" y="1670" width="200" height="40" style="fill:white;stroke:black;stroke-width:1" /><text x="1130" y="1680" font-size="10" style="fill:blue">fotografia</text><path d="M1100 1690 C1120 1690 1100 1690 1120 1690" style="fill:transparent;stroke:black" /><text x="1130" y="1690" font-size="8" style="fill:black">src: multimedia/cirebon.jpg</text><rect x="1186" y="1670" width="137" height="40" style="fill:green;stroke:black;stroke-width:1" /><text x="1196" y="1680" font-size="8" style="fill:white">Cirebon</text><rect x="240" y="1920" width="200" height="40" style="fill:white;stroke:black;stroke-width:1" /><text x="250" y="1930" font-size="10" style="fill:blue">ruta</text><path d="M220 40 C240 40 220 1940 240 1940" style="fill:transparent;stroke:black" /><rect x="460" y="1920" width="200" height="40" style="fill:white;stroke:black;stroke-width:1" /><text x="470" y="1930" font-size="10" style="fill:blue">nombre</text><path d="M440 1940 C460 1940 440 1940 460 1940" style="fill:transparent;stroke:black" /><rect x="526" y="1920" width="137" height="40" style="fill:green;stroke:black;stroke-width:1" /><text x="536" y="1930" font-size="8" style="fill:white">Isla Sumatra</text><rect x="460" y="1970" width="200" height="40" style="fill:white;stroke:black;stroke-width:1" /><text x="470" y="1980" font-size="10" style="fill:blue">tipoRuta</text><path d="M440 1940 C460 1940 440 1990 460 1990" style="fill:transparent;stroke:black" /><rect x="526" y="1970" width="137" height="40" style="fill:green;stroke:black;stroke-width:1" /><text x="536" y="1980" font-size="8" style="fill:white">Costera</text><rect x="460" y="2020" width="200" height="40" style="fill:white;stroke:black;stroke-width:1" /><text x="470" y="2030" font-size="10" style="fill:blue">transporte</text><path d="M440 1940 C460 1940 440 2040 460 2040" style="fill:transparent;stroke:black" /><rect x="526" y="2020" width="137" height="40" style="fill:green;stroke:black;stroke-width:1" /><text x="536" y="2030" font-size="8" style="fill:white">A pie</text><rect x="460" y="2070" width="200" height="40" style="fill:white;stroke:black;stroke-width:1" /><text x="470" y="2080" font-size="10" style="fill:blue">duracion</text><path d="M440 1940 C460 1940 440 2090 460 2090" style="fill:transparent;stroke:black" /><rect x="526" y="2070" width="137" height="40" style="fill:green;stroke:black;stroke-width:1" /><text x="536" y="2080" font-size="8" style="fill:white">P0Y0M0DT4H10M</text><rect x="460" y="2120" width="200" height="40" style="fill:white;stroke:black;stroke-width:1" /><text x="470" y="2130" font-size="10" style="fill:blue">agencia</text><path d="M440 1940 C460 1940 440 2140 460 2140" style="fill:transparent;stroke:black" /><rect x="526" y="2120" width="137" height="40" style="fill:green;stroke:black;stroke-width:1" /><text x="536" y="2130" font-size="8" style="fill:white">Sin agencia</text><rect x="460" y="2170" width="200" height="40" style="fill:white;stroke:black;stroke-width:1" /><text x="470" y="2180" font-size="10" style="fill:blue">descripcion</text><path d="M440 1940 C460 1940 440 2190 460 2190" style="fill:transparent;stroke:black" /><rect x="526" y="2170" width="137" height="40" style="fill:green;stroke:black;stroke-width:1" /><text x="536" y="2180" font-size="8" style="fill:white">Ruta por la isla de Sumatra</text><rect x="460" y="2220" width="200" height="40" style="fill:white;stroke:black;stroke-width:1" /><text x="470" y="2230" font-size="10" style="fill:blue">personasAdecuadas</text><path d="M440 1940 C460 1940 440 2240 460 2240" style="fill:transparent;stroke:black" /><rect x="526" y="2220" width="137" height="40" style="fill:green;stroke:black;stroke-width:1" /><text x="536" y="2230" font-size="8" style="fill:white">Personas en buena forma física</text><rect x="460" y="2270" width="200" height="40" style="fill:white;stroke:black;stroke-width:1" /><text x="470" y="2280" font-size="10" style="fill:blue">lugarInicio</text><path d="M440 1940 C460 1940 440 2290 460 2290" style="fill:transparent;stroke:black" /><rect x="526" y="2270" width="137" height="40" style="fill:green;stroke:black;stroke-width:1" /><text x="536" y="2280" font-size="8" style="fill:white">Pantai Rumput Hijau</text><rect x="460" y="2320" width="200" height="40" style="fill:white;stroke:black;stroke-width:1" /><text x="470" y="2330" font-size="10" style="fill:blue">direccionInicio</text><path d="M440 1940 C460 1940 440 2340 460 2340" style="fill:transparent;stroke:black" /><rect x="526" y="2320" width="137" height="40" style="fill:green;stroke:black;stroke-width:1" /><text x="536" y="2330" font-size="8" style="fill:white">H3WC+R4X, Marang, South Pesisir, West Lampung Regency, Lampung, Indonesia</text><rect x="460" y="2370" width="200" height="40" style="fill:white;stroke:black;stroke-width:1" /><text x="470" y="2380" font-size="10" style="fill:blue">coordenadas</text><path d="M440 1940 C460 1940 440 2390 460 2390" style="fill:transparent;stroke:black" /><text x="470" y="2390" font-size="8" style="fill:black">longitud: 104.07017071841885</text><text x="470" y="2400" font-size="8" style="fill:black">latitud: -5.4008603258356045</text><text x="470" y="2410" font-size="8" style="fill:black">altitud: 8.0</text><rect x="460" y="2420" width="200" height="40" style="fill:white;stroke:black;stroke-width:1" /><text x="470" y="2430" font-size="10" style="fill:blue">referencias</text><path d="M440 1940 C460 1940 440 2440 460 2440" style="fill:transparent;stroke:black" /><rect x="680" y="2420" width="200" height="40" style="fill:white;stroke:black;stroke-width:1" /><text x="690" y="2430" font-size="10" style="fill:blue">referencia</text><path d="M660 2440 C680 2440 660 2440 680 2440" style="fill:transparent;stroke:black" /><rect x="746" y="2420" width="137" height="40" style="fill:green;stroke:black;stroke-width:1" /><text x="756" y="2430" font-size="8" style="fill:white">https://es.wikipedia.org/wiki/Sumatra</text><rect x="680" y="2470" width="200" height="40" style="fill:white;stroke:black;stroke-width:1" /><text x="690" y="2480" font-size="10" style="fill:blue">referencia</text><path d="M660 2440 C680 2440 660 2490 680 2490" style="fill:transparent;stroke:black" /><rect x="746" y="2470" width="137" height="40" style="fill:green;stroke:black;stroke-width:1" /><text x="756" y="2480" font-size="8" style="fill:white">https://www.mundo-nomada.com/indonesia/la-isla-de-sumatra-naturaleza-salvaje-en-indonesia</text><rect x="680" y="2520" width="200" height="40" style="fill:white;stroke:black;stroke-width:1" /><text x="690" y="2530" font-size="10" style="fill:blue">referencia</text><path d="M660 2440 C680 2440 660 2540 680 2540" style="fill:transparent;stroke:black" /><rect x="746" y="2520" width="137" height="40" style="fill:green;stroke:black;stroke-width:1" /><text x="756" y="2530" font-size="8" style="fill:white">https://www.expedia.es/Sumatra.dx6049206</text><rect x="460" y="2620" width="200" height="40" style="fill:white;stroke:black;stroke-width:1" /><text x="470" y="2630" font-size="10" style="fill:blue">recomendacion</text><path d="M440 1940 C460 1940 440 2640 460 2640" style="fill:transparent;stroke:black" /><rect x="526" y="2620" width="137" height="40" style="fill:green;stroke:black;stroke-width:1" /><text x="536" y="2630" font-size="8" style="fill:white">7</text><rect x="460" y="2670" width="200" height="40" style="fill:white;stroke:black;stroke-width:1" /><text x="470" y="2680" font-size="10" style="fill:blue">hitos</text><path d="M440 1940 C460 1940 440 2690 460 2690" style="fill:transparent;stroke:black" /><rect x="680" y="2670" width="200" height="40" style="fill:white;stroke:black;stroke-width:1" /><text x="690" y="2680" font-size="10" style="fill:blue">hito</text><path d="M660 2690 C680 2690 660 2690 680 2690" style="fill:transparent;stroke:black" /><rect x="900" y="2670" width="200" height="40" style="fill:white;stroke:black;stroke-width:1" /><text x="910" y="2680" font-size="10" style="fill:blue">nombreHito</text><path d="M880 2690 C900 2690 880 2690 900 2690" style="fill:transparent;stroke:black" /><rect x="966" y="2670" width="137" height="40" style="fill:green;stroke:black;stroke-width:1" /><text x="976" y="2680" font-size="8" style="fill:white">Pantai Melasti</text><rect x="900" y="2720" width="200" height="40" style="fill:white;stroke:black;stroke-width:1" /><text x="910" y="2730" font-size="10" style="fill:blue">descripcionHito</text><path d="M880 2690 C900 2690 880 2740 900 2740" style="fill:transparent;stroke:black" /><rect x="966" y="2720" width="137" height="40" style="fill:green;stroke:black;stroke-width:1" /><text x="976" y="2730" font-size="8" style="fill:white">Playa de la isla de Sumatra</text><rect x="900" y="2770" width="200" height="40" style="fill:white;stroke:black;stroke-width:1" /><text x="910" y="2780" font-size="10" style="fill:blue">coordenadasHito</text><path d="M880 2690 C900 2690 880 2790 900 2790" style="fill:transparent;stroke:black" /><text x="910" y="2790" font-size="8" style="fill:black">longitud: 104.08358918992543</text><text x="910" y="2800" font-size="8" style="fill:black">latitud: -5.398883265056443</text><text x="910" y="2810" font-size="8" style="fill:black">altitud: 2.0</text><rect x="900" y="2820" width="200" height="40" style="fill:white;stroke:black;stroke-width:1" /><text x="910" y="2830" font-size="10" style="fill:blue">distanciaAnterior</text><path d="M880 2690 C900 2690 880 2840 900 2840" style="fill:transparent;stroke:black" /><text x="910" y="2840" font-size="8" style="fill:black">unidades: minutos</text><rect x="966" y="2820" width="137" height="40" style="fill:green;stroke:black;stroke-width:1" /><text x="976" y="2830" font-size="8" style="fill:white">20</text><rect x="900" y="2870" width="200" height="40" style="fill:white;stroke:black;stroke-width:1" /><text x="910" y="2880" font-size="10" style="fill:blue">fotografias</text><path d="M880 2690 C900 2690 880 2890 900 2890" style="fill:transparent;stroke:black" /><rect x="1120" y="2870" width="200" height="40" style="fill:white;stroke:black;stroke-width:1" /><text x="1130" y="2880" font-size="10" style="fill:blue">fotografia</text><path d="M1100 2890 C1120 2890 1100 2890 1120 2890" style="fill:transparent;stroke:black" /><text x="1130" y="2890" font-size="8" style="fill:black">src: multimedia/melasti.jpg</text><rect x="1186" y="2870" width="137" height="40" style="fill:green;stroke:black;stroke-width:1" /><text x="1196" y="2880" font-size="8" style="fill:white">Melasti</text><rect x="680" y="3020" width="200" height="40" style="fill:white;stroke:black;stroke-width:1" /><text x="690" y="3030" font-size="10" style="fill:blue">hito</text><path d="M660 2690 C680 2690 660 3040 680 3040" style="fill:transparent;stroke:black" /><rect x="900" y="3020" width="200" height="40" style="fill:white;stroke:black;stroke-width:1" /><text x="910" y="3030" font-size="10" style="fill:blue">nombreHito</text><path d="M880 3040 C900 3040 880 3040 900 3040" style="fill:transparent;stroke:black" /><rect x="966" y="3020" width="137" height="40" style="fill:green;stroke:black;stroke-width:1" /><text x="976" y="3030" font-size="8" style="fill:white">Pantai Biha</text><rect x="900" y="3070" width="200" height="40" style="fill:white;stroke:black;stroke-width:1" /><text x="910" y="3080" font-size="10" style="fill:blue">descripcionHito</text><path d="M880 3040 C900 3040 880 3090 900 3090" style="fill:transparent;stroke:black" /><rect x="966" y="3070" width="137" height="40" style="fill:green;stroke:black;stroke-width:1" /><text x="976" y="3080" font-size="8" style="fill:white">Playa de la isla de Sumatra</text><rect x="900" y="3120" width="200" height="40" style="fill:white;stroke:black;stroke-width:1" /><text x="910" y="3130" font-size="10" style="fill:blue">coordenadasHito</text><path d="M880 3040 C900 3040 880 3140 900 3140" style="fill:transparent;stroke:black" /><text x="910" y="3140" font-size="8" style="fill:black">longitud: 104.00886759781427</text><text x="910" y="3150" font-size="8" style="fill:black">latitud: -5.323698018480774</text><text x="910" y="3160" font-size="8" style="fill:black">altitud: 4.0</text><rect x="900" y="3170" width="200" height="40" style="fill:white;stroke:black;stroke-width:1" /><text x="910" y="3180" font-size="10" style="fill:blue">distanciaAnterior</text><path d="M880 3040 C900 3040 880 3190 900 3190" style="fill:transparent;stroke:black" /><text x="910" y="3190" font-size="8" style="fill:black">unidades: minutos</text><rect x="966" y="3170" width="137" height="40" style="fill:green;stroke:black;stroke-width:1" /><text x="976" y="3180" font-size="8" style="fill:white">110</text><rect x="900" y="3220" width="200" height="40" style="fill:white;stroke:black;stroke-width:1" /><text x="910" y="3230" font-size="10" style="fill:blue">fotografias</text><path d="M880 3040 C900 3040 880 3240 900 3240" style="fill:transparent;stroke:black" /><rect x="1120" y="3220" width="200" height="40" style="fill:white;stroke:black;stroke-width:1" /><text x="1130" y="3230" font-size="10" style="fill:blue">fotografia</text><path d="M1100 3240 C1120 3240 1100 3240 1120 3240" style="fill:transparent;stroke:black" /><text x="1130" y="3240" font-size="8" style="fill:black">src: multimedia/biha.jpg</text><rect x="1186" y="3220" width="137" height="40" style="fill:green;stroke:black;stroke-width:1" /><text x="1196" y="3230" font-size="8" style="fill:white">Biha</text><rect x="680" y="3370" width="200" height="40" style="fill:white;stroke:black;stroke-width:1" /><text x="690" y="3380" font-size="10" style="fill:blue">hito</text><path d="M660 2690 C680 2690 660 3390 680 3390" style="fill:transparent;stroke:black" /><rect x="900" y="3370" width="200" height="40" style="fill:white;stroke:black;stroke-width:1" /><text x="910" y="3380" font-size="10" style="fill:blue">nombreHito</text><path d="M880 3390 C900 3390 880 3390 900 3390" style="fill:transparent;stroke:black" /><rect x="966" y="3370" width="137" height="40" style="fill:green;stroke:black;stroke-width:1" /><text x="976" y="3380" font-size="8" style="fill:white">Pantai Tanjung Setia Krui Lampung</text><rect x="900" y="3420" width="200" height="40" style="fill:white;stroke:black;stroke-width:1" /><text x="910" y="3430" font-size="10" style="fill:blue">descripcionHito</text><path d="M880 3390 C900 3390 880 3440 900 3440" style="fill:transparent;stroke:black" /><rect x="966" y="3420" width="137" height="40" style="fill:green;stroke:black;stroke-width:1" /><text x="976" y="3430" font-size="8" style="fill:white">Playa de la isla de Sumatra</text><rect x="900" y="3470" width="200" height="40" style="fill:white;stroke:black;stroke-width:1" /><text x="910" y="3480" font-size="10" style="fill:blue">coordenadasHito</text><path d="M880 3390 C900 3390 880 3490 900 3490" style="fill:transparent;stroke:black" /><text x="910" y="3490" font-size="8" style="fill:black">longitud: 103.99940008434265</text><text x="910" y="3500" font-size="8" style="fill:black">latitud: -5.302125839197073</text><text x="910" y="3510" font-size="8" style="fill:black">altitud: 2.0</text><rect x="900" y="3520" width="200" height="40" style="fill:white;stroke:black;stroke-width:1" /><text x="910" y="3530" font-size="10" style="fill:blue">distanciaAnterior</text><path d="M880 3390 C900 3390 880 3540 900 3540" style="fill:transparent;stroke:black" /><text x="910" y="3540" font-size="8" style="fill:black">unidades: minutos</text><rect x="966" y="3520" width="137" height="40" style="fill:green;stroke:black;stroke-width:1" /><text x="976" y="3530" font-size="8" style="fill:white">210</text><rect x="900" y="3570" width="200" height="40" style="fill:white;stroke:black;stroke-width:1" /><text x="910" y="3580" font-size="10" style="fill:blue">fotografias</text><path d="M880 3390 C900 3390 880 3590 900 3590" style="fill:transparent;stroke:black" /><rect x="1120" y="3570" width="200" height="40" style="fill:white;stroke:black;stroke-width:1" /><text x="1130" y="3580" font-size="10" style="fill:blue">fotografia</text><path d="M1100 3590 C1120 3590 1100 3590 1120 3590" style="fill:transparent;stroke:black" /><text x="1130" y="3590" font-size="8" style="fill:black">src: multimedia/tanjung.jpg</text><rect x="1186" y="3570" width="137" height="40" style="fill:green;stroke:black;stroke-width:1" /><text x="1196" y="3580" font-size="8" style="fill:white">Tanjung</text><rect x="240" y="3820" width="200" height="40" style="fill:white;stroke:black;stroke-width:1" /><text x="250" y="3830" font-size="10" style="fill:blue">ruta</text><path d="M220 40 C240 40 220 3840 240 3840" style="fill:transparent;stroke:black" /><rect x="460" y="3820" width="200" height="40" style="fill:white;stroke:black;stroke-width:1" /><text x="470" y="3830" font-size="10" style="fill:blue">nombre</text><path d="M440 3840 C460 3840 440 3840 460 3840" style="fill:transparent;stroke:black" /><rect x="526" y="3820" width="137" height="40" style="fill:green;stroke:black;stroke-width:1" /><text x="536" y="3830" font-size="8" style="fill:white">Isla Borneo</text><rect x="460" y="3870" width="200" height="40" style="fill:white;stroke:black;stroke-width:1" /><text x="470" y="3880" font-size="10" style="fill:blue">tipoRuta</text><path d="M440 3840 C460 3840 440 3890 460 3890" style="fill:transparent;stroke:black" /><rect x="526" y="3870" width="137" height="40" style="fill:green;stroke:black;stroke-width:1" /><text x="536" y="3880" font-size="8" style="fill:white">Turística</text><rect x="460" y="3920" width="200" height="40" style="fill:white;stroke:black;stroke-width:1" /><text x="470" y="3930" font-size="10" style="fill:blue">transporte</text><path d="M440 3840 C460 3840 440 3940 460 3940" style="fill:transparent;stroke:black" /><rect x="526" y="3920" width="137" height="40" style="fill:green;stroke:black;stroke-width:1" /><text x="536" y="3930" font-size="8" style="fill:white">Coche</text><rect x="460" y="3970" width="200" height="40" style="fill:white;stroke:black;stroke-width:1" /><text x="470" y="3980" font-size="10" style="fill:blue">duracion</text><path d="M440 3840 C460 3840 440 3990 460 3990" style="fill:transparent;stroke:black" /><rect x="526" y="3970" width="137" height="40" style="fill:green;stroke:black;stroke-width:1" /><text x="536" y="3980" font-size="8" style="fill:white">P0Y0M0DT3H41M</text><rect x="460" y="4020" width="200" height="40" style="fill:white;stroke:black;stroke-width:1" /><text x="470" y="4030" font-size="10" style="fill:blue">agencia</text><path d="M440 3840 C460 3840 440 4040 460 4040" style="fill:transparent;stroke:black" /><rect x="526" y="4020" width="137" height="40" style="fill:green;stroke:black;stroke-width:1" /><text x="536" y="4030" font-size="8" style="fill:white">Sin agencia</text><rect x="460" y="4070" width="200" height="40" style="fill:white;stroke:black;stroke-width:1" /><text x="470" y="4080" font-size="10" style="fill:blue">descripcion</text><path d="M440 3840 C460 3840 440 4090 460 4090" style="fill:transparent;stroke:black" /><rect x="526" y="4070" width="137" height="40" style="fill:green;stroke:black;stroke-width:1" /><text x="536" y="4080" font-size="8" style="fill:white">Ruta el sur de la isla de Borneo</text><rect x="460" y="4120" width="200" height="40" style="fill:white;stroke:black;stroke-width:1" /><text x="470" y="4130" font-size="10" style="fill:blue">personasAdecuadas</text><path d="M440 3840 C460 3840 440 4140 460 4140" style="fill:transparent;stroke:black" /><rect x="526" y="4120" width="137" height="40" style="fill:green;stroke:black;stroke-width:1" /><text x="536" y="4130" font-size="8" style="fill:white">Se puede ir con niños</text><rect x="460" y="4170" width="200" height="40" style="fill:white;stroke:black;stroke-width:1" /><text x="470" y="4180" font-size="10" style="fill:blue">lugarInicio</text><path d="M440 3840 C460 3840 440 4190 460 4190" style="fill:transparent;stroke:black" /><rect x="526" y="4170" width="137" height="40" style="fill:green;stroke:black;stroke-width:1" /><text x="536" y="4180" font-size="8" style="fill:white">Banjarmasin</text><rect x="460" y="4220" width="200" height="40" style="fill:white;stroke:black;stroke-width:1" /><text x="470" y="4230" font-size="10" style="fill:blue">direccionInicio</text><path d="M440 3840 C460 3840 440 4240 460 4240" style="fill:transparent;stroke:black" /><rect x="526" y="4220" width="137" height="40" style="fill:green;stroke:black;stroke-width:1" /><text x="536" y="4230" font-size="8" style="fill:white">Jl. Keramat Basirih No.RT.13, Basirih, Kec. Banjarmasin Bar., Kota Banjarmasin, Kalimantan Selatan 70112, Indonesia</text><rect x="460" y="4270" width="200" height="40" style="fill:white;stroke:black;stroke-width:1" /><text x="470" y="4280" font-size="10" style="fill:blue">coordenadas</text><path d="M440 3840 C460 3840 440 4290 460 4290" style="fill:transparent;stroke:black" /><text x="470" y="4290" font-size="8" style="fill:black">longitud: 114.64303045745362</text><text x="470" y="4300" font-size="8" style="fill:black">latitud: -3.3257060075587073</text><text x="470" y="4310" font-size="8" style="fill:black">altitud: 1.0</text><rect x="460" y="4320" width="200" height="40" style="fill:white;stroke:black;stroke-width:1" /><text x="470" y="4330" font-size="10" style="fill:blue">referencias</text><path d="M440 3840 C460 3840 440 4340 460 4340" style="fill:transparent;stroke:black" /><rect x="680" y="4320" width="200" height="40" style="fill:white;stroke:black;stroke-width:1" /><text x="690" y="4330" font-size="10" style="fill:blue">referencia</text><path d="M660 4340 C680 4340 660 4340 680 4340" style="fill:transparent;stroke:black" /><rect x="746" y="4320" width="137" height="40" style="fill:green;stroke:black;stroke-width:1" /><text x="756" y="4330" font-size="8" style="fill:white">https://es.wikipedia.org/wiki/Banjarmasin</text><rect x="680" y="4370" width="200" height="40" style="fill:white;stroke:black;stroke-width:1" /><text x="690" y="4380" font-size="10" style="fill:blue">referencia</text><path d="M660 4340 C680 4340 660 4390 680 4390" style="fill:transparent;stroke:black" /><rect x="746" y="4370" width="137" height="40" style="fill:green;stroke:black;stroke-width:1" /><text x="756" y="4380" font-size="8" style="fill:white">https://es.wikipedia.org/wiki/Provincia_de_Borneo_Meridional</text><rect x="680" y="4420" width="200" height="40" style="fill:white;stroke:black;stroke-width:1" /><text x="690" y="4430" font-size="10" style="fill:blue">referencia</text><path d="M660 4340 C680 4340 660 4440 680 4440" style="fill:transparent;stroke:black" /><rect x="746" y="4420" width="137" height="40" style="fill:green;stroke:black;stroke-width:1" /><text x="756" y="4430" font-size="8" style="fill:white">https://es.wikipedia.org/wiki/Indonesia</text><rect x="460" y="4520" width="200" height="40" style="fill:white;stroke:black;stroke-width:1" /><text x="470" y="4530" font-size="10" style="fill:blue">recomendacion</text><path d="M440 3840 C460 3840 440 4540 460 4540" style="fill:transparent;stroke:black" /><rect x="526" y="4520" width="137" height="40" style="fill:green;stroke:black;stroke-width:1" /><text x="536" y="4530" font-size="8" style="fill:white">8</text><rect x="460" y="4570" width="200" height="40" style="fill:white;stroke:black;stroke-width:1" /><text x="470" y="4580" font-size="10" style="fill:blue">hitos</text><path d="M440 3840 C460 3840 440 4590 460 4590" style="fill:transparent;stroke:black" /><rect x="680" y="4570" width="200" height="40" style="fill:white;stroke:black;stroke-width:1" /><text x="690" y="4580" font-size="10" style="fill:blue">hito</text><path d="M660 4590 C680 4590 660 4590 680 4590" style="fill:transparent;stroke:black" /><rect x="900" y="4570" width="200" height="40" style="fill:white;stroke:black;stroke-width:1" /><text x="910" y="4580" font-size="10" style="fill:blue">nombreHito</text><path d="M880 4590 C900 4590 880 4590 900 4590" style="fill:transparent;stroke:black" /><rect x="966" y="4570" width="137" height="40" style="fill:green;stroke:black;stroke-width:1" /><text x="976" y="4580" font-size="8" style="fill:white">Martapura</text><rect x="900" y="4620" width="200" height="40" style="fill:white;stroke:black;stroke-width:1" /><text x="910" y="4630" font-size="10" style="fill:blue">descripcionHito</text><path d="M880 4590 C900 4590 880 4640 900 4640" style="fill:transparent;stroke:black" /><rect x="966" y="4620" width="137" height="40" style="fill:green;stroke:black;stroke-width:1" /><text x="976" y="4630" font-size="8" style="fill:white">Localidad sureña de Borneo</text><rect x="900" y="4670" width="200" height="40" style="fill:white;stroke:black;stroke-width:1" /><text x="910" y="4680" font-size="10" style="fill:blue">coordenadasHito</text><path d="M880 4590 C900 4590 880 4690 900 4690" style="fill:transparent;stroke:black" /><text x="910" y="4690" font-size="8" style="fill:black">longitud: 114.86497430839037</text><text x="910" y="4700" font-size="8" style="fill:black">latitud: -3.4066569118480117</text><text x="910" y="4710" font-size="8" style="fill:black">altitud: 22.0</text><rect x="900" y="4720" width="200" height="40" style="fill:white;stroke:black;stroke-width:1" /><text x="910" y="4730" font-size="10" style="fill:blue">distanciaAnterior</text><path d="M880 4590 C900 4590 880 4740 900 4740" style="fill:transparent;stroke:black" /><text x="910" y="4740" font-size="8" style="fill:black">unidades: minutos</text><rect x="966" y="4720" width="137" height="40" style="fill:green;stroke:black;stroke-width:1" /><text x="976" y="4730" font-size="8" style="fill:white">49</text><rect x="900" y="4770" width="200" height="40" style="fill:white;stroke:black;stroke-width:1" /><text x="910" y="4780" font-size="10" style="fill:blue">fotografias</text><path d="M880 4590 C900 4590 880 4790 900 4790" style="fill:transparent;stroke:black" /><rect x="1120" y="4770" width="200" height="40" style="fill:white;stroke:black;stroke-width:1" /><text x="1130" y="4780" font-size="10" style="fill:blue">fotografia</text><path d="M1100 4790 C1120 4790 1100 4790 1120 4790" style="fill:transparent;stroke:black" /><text x="1130" y="4790" font-size="8" style="fill:black">src: multimedia/martapura.jpg</text><rect x="1186" y="4770" width="137" height="40" style="fill:green;stroke:black;stroke-width:1" /><text x="1196" y="4780" font-size="8" style="fill:white">Martapura</text><rect x="680" y="4920" width="200" height="40" style="fill:white;stroke:black;stroke-width:1" /><text x="690" y="4930" font-size="10" style="fill:blue">hito</text><path d="M660 4590 C680 4590 660 4940 680 4940" style="fill:transparent;stroke:black" /><rect x="900" y="4920" width="200" height="40" style="fill:white;stroke:black;stroke-width:1" /><text x="910" y="4930" font-size="10" style="fill:blue">nombreHito</text><path d="M880 4940 C900 4940 880 4940 900 4940" style="fill:transparent;stroke:black" /><rect x="966" y="4920" width="137" height="40" style="fill:green;stroke:black;stroke-width:1" /><text x="976" y="4930" font-size="8" style="fill:white">Binuang</text><rect x="900" y="4970" width="200" height="40" style="fill:white;stroke:black;stroke-width:1" /><text x="910" y="4980" font-size="10" style="fill:blue">descripcionHito</text><path d="M880 4940 C900 4940 880 4990 900 4990" style="fill:transparent;stroke:black" /><rect x="966" y="4970" width="137" height="40" style="fill:green;stroke:black;stroke-width:1" /><text x="976" y="4980" font-size="8" style="fill:white">Localidad sureste de la isla de Borneo</text><rect x="900" y="5020" width="200" height="40" style="fill:white;stroke:black;stroke-width:1" /><text x="910" y="5030" font-size="10" style="fill:blue">coordenadasHito</text><path d="M880 4940 C900 4940 880 5040 900 5040" style="fill:transparent;stroke:black" /><text x="910" y="5040" font-size="8" style="fill:black">longitud: 115.10668750762285</text><text x="910" y="5050" font-size="8" style="fill:black">latitud: -3.1702094265330576</text><text x="910" y="5060" font-size="8" style="fill:black">altitud: 15.0</text><rect x="900" y="5070" width="200" height="40" style="fill:white;stroke:black;stroke-width:1" /><text x="910" y="5080" font-size="10" style="fill:blue">distanciaAnterior</text><path d="M880 4940 C900 4940 880 5090 900 5090" style="fill:transparent;stroke:black" /><text x="910" y="5090" font-size="8" style="fill:black">unidades: minutos</text><rect x="966" y="5070" width="137" height="40" style="fill:green;stroke:black;stroke-width:1" /><text x="976" y="5080" font-size="8" style="fill:white">52</text><rect x="900" y="5120" width="200" height="40" style="fill:white;stroke:black;stroke-width:1" /><text x="910" y="5130" font-size="10" style="fill:blue">fotografias</text><path d="M880 4940 C900 4940 880 5140 900 5140" style="fill:transparent;stroke:black" /><rect x="1120" y="5120" width="200" height="40" style="fill:white;stroke:black;stroke-width:1" /><text x="1130" y="5130" font-size="10" style="fill:blue">fotografia</text><path d="M1100 5140 C1120 5140 1100 5140 1120 5140" style="fill:transparent;stroke:black" /><text x="1130" y="5140" font-size="8" style="fill:black">src: multimedia/binuang.jpg</text><rect x="1186" y="5120" width="137" height="40" style="fill:green;stroke:black;stroke-width:1" /><text x="1196" y="5130" font-size="8" style="fill:white">Binuang</text><rect x="680" y="5270" width="200" height="40" style="fill:white;stroke:black;stroke-width:1" /><text x="690" y="5280" font-size="10" style="fill:blue">hito</text><path d="M660 4590 C680 4590 660 5290 680 5290" style="fill:transparent;stroke:black" /><rect x="900" y="5270" width="200" height="40" style="fill:white;stroke:black;stroke-width:1" /><text x="910" y="5280" font-size="10" style="fill:blue">nombreHito</text><path d="M880 5290 C900 5290 880 5290 900 5290" style="fill:transparent;stroke:black" /><rect x="966" y="5270" width="137" height="40" style="fill:green;stroke:black;stroke-width:1" /><text x="976" y="5280" font-size="8" style="fill:white">Lapangan Dwiwarna</text><rect x="900" y="5320" width="200" height="40" style="fill:white;stroke:black;stroke-width:1" /><text x="910" y="5330" font-size="10" style="fill:blue">descripcionHito</text><path d="M880 5290 C900 5290 880 5340 900 5340" style="fill:transparent;stroke:black" /><rect x="966" y="5320" width="137" height="40" style="fill:green;stroke:black;stroke-width:1" /><text x="976" y="5330" font-size="8" style="fill:white">Localidad sureste de Borneo</text><rect x="900" y="5370" width="200" height="40" style="fill:white;stroke:black;stroke-width:1" /><text x="910" y="5380" font-size="10" style="fill:blue">coordenadasHito</text><path d="M880 5290 C900 5290 880 5390 900 5390" style="fill:transparent;stroke:black" /><text x="910" y="5390" font-size="8" style="fill:black">longitud: 115.64263705627333</text><text x="910" y="5400" font-size="8" style="fill:black">latitud: -2.5625716016472584</text><text x="910" y="5410" font-size="8" style="fill:black">altitud: 24.0</text><rect x="900" y="5420" width="200" height="40" style="fill:white;stroke:black;stroke-width:1" /><text x="910" y="5430" font-size="10" style="fill:blue">distanciaAnterior</text><path d="M880 5290 C900 5290 880 5440 900 5440" style="fill:transparent;stroke:black" /><text x="910" y="5440" font-size="8" style="fill:black">unidades: minutos</text><rect x="966" y="5420" width="137" height="40" style="fill:green;stroke:black;stroke-width:1" /><text x="976" y="5430" font-size="8" style="fill:white">120</text><rect x="900" y="5470" width="200" height="40" style="fill:white;stroke:black;stroke-width:1" /><text x="910" y="5480" font-size="10" style="fill:blue">fotografias</text><path d="M880 5290 C900 5290 880 5490 900 5490" style="fill:transparent;stroke:black" /><rect x="1120" y="5470" width="200" height="40" style="fill:white;stroke:black;stroke-width:1" /><text x="1130" y="5480" font-size="10" style="fill:blue">fotografia</text><path d="M1100 5490 C1120 5490 1100 5490 1120 5490" style="fill:transparent;stroke:black" /><text x="1130" y="5490" font-size="8" style="fill:black">src: multimedia/lapangan.jpg</text><rect x="1186" y="5470" width="137" height="40" style="fill:green;stroke:black;stroke-width:1" /><text x="1196" y="5480" font-size="8" style="fill:white">Lapangan</text></svg>